<svg xmlns="http://www.w3.org/2000/svg" viewBox="0 0 456.021 456.021" width="512" height="512"><path d="M368.981 197.023l-140.97 210.96c58.39 0 116.83-22.07 161.38-66.62 44.55-44.55 66.76-102.99 66.63-161.38-29.62-.07-59.22 5.62-87.04 17.04zM87.041 197.023a227.796 227.796 0 0 0-87.04-17.04c-.13 58.39 22.08 116.83 66.63 161.38s102.99 66.62 161.37 66.61l-140.96-210.95z" fill="#ff8882"/><path d="M351.411 110.083c-27.39 11.27-52.56 27.85-73.89 49.06l-49.51 248.84c54-22.22 99.49-65.1 123.6-123.31 11.88-28.69 17.46-58.42 17.37-87.65-.09-30.06-6.18-59.61-17.57-86.94zM178.501 159.143c-21.33-21.21-46.5-37.79-73.89-49.06-11.39 27.33-17.48 56.88-17.57 86.94-.09 29.23 5.49 58.96 17.37 87.65 24.11 58.21 69.59 101.08 123.59 123.3l-49.5-248.83z" fill="#ffb8b4"/><circle cx="228.011" cy="55.538" r="7.5" fill="#ff382e"/><circle cx="159.251" cy="62.31" r="7.5" fill="#ff382e"/><circle cx="296.77" cy="62.31" r="7.5" fill="#ff382e"/><path d="M277.521 159.143c11.27 26.96 17.49 56.56 17.49 87.62 0 63.01-25.62 120.03-67 161.22-41.38-41.2-67-98.22-67-161.22 0-31.06 6.22-60.66 17.49-87.62 11.59-27.76 28.53-52.72 49.51-73.61 20.98 20.89 37.92 45.85 49.51 73.61z" fill="#ff8882"/></svg>